<svg id="Layer_1" data-name="Layer 1" xmlns="http://www.w3.org/2000/svg" viewBox="0 0 788.35 646.03"><defs><style>.cls-1{fill:#fd9128;}.cls-2{fill:#003673;}.cls-3{fill:#fff;}</style></defs><title>privatsnak</title><path class="cls-1" d="M61.37,475.83l590.2,168.8c10.4,3,20.1,1,21.7-4.4l57-195.5c1.6-5.4-5.6-12.2-16-15.2l-590.2-168.8c-10.4-3-20.1-1-21.7,4.4l-57,195.5c-1.6,5.4,5.6,12.2,16,15.2"/><polyline class="cls-1" points="73.47 580.23 100.57 485.23 184.47 508.93"/><path class="cls-2" d="M16.77,229.33h0a23.79,23.79,0,0,1-15.9-29.1L51.07,17A22.7,22.7,0,0,1,78.71.72h0l.63.17L771.57,204a23.79,23.79,0,0,1,15.9,29.1l-50.3,183.23h0a22.69,22.69,0,0,1-27.65,16.28h0l-.63-.17L16.77,229.33"/><polyline class="cls-2" points="142.37 266.13 61.77 242.53 40.07 321.83"/><path class="cls-3" d="M182.77,82l17.6,4.9-34.7,128.2-17.6-4.9Zm-7.5,63.9,40.1,11.1a17.76,17.76,0,0,0,10.7,0,18.35,18.35,0,0,0,8.8-5.9,30.64,30.64,0,0,0,6.3-23.2,18.76,18.76,0,0,0-13.8-15.3l-40.1-11.1,4.6-17.1,39.5,11c7.5,2.1,13.6,5.5,18.4,10.4a35,35,0,0,1,9.5,17.5,45.74,45.74,0,0,1-.9,21.9,44.28,44.28,0,0,1-10.3,19.3,34,34,0,0,1-16.9,10c-6.6,1.7-13.6,1.4-21-.6l-39.5-11Z"/><path class="cls-3" d="M281.07,148.83l17.6,4.9L274,245.23l-17.6-4.9Zm38.7,29.4a21.64,21.64,0,0,0-7.8-3.8c-5.6-1.6-10.3-1.2-14.2,1.1s-6.6,6.2-8.2,11.8l3-18.1a33.91,33.91,0,0,1,14.1-9.8,25.6,25.6,0,0,1,15.7-.5,33.46,33.46,0,0,1,10.6,4.9,25.09,25.09,0,0,1,7.2,7.7l-15.8,12.7A14.23,14.23,0,0,0,319.77,178.23Z"/><path class="cls-3" d="M356.37,169.83l17.6,4.9-24.7,91.5-17.6-4.9Zm9.9-36.7,17.6,4.9L379,156l-17.6-4.9Z"/><path class="cls-3" d="M453.37,196.73l18.4,5.1L413.37,284l-13.3-3.7-8.9-100.9,18.4,5.1,4.2,71.4Z"/><path class="cls-3" d="M469.67,293.63c-4.2-6.2-5-14.1-2.4-23.6,2.4-9.1,6.8-15.1,13-18.3s14.4-3.3,24.5-.5l25.4,7.1-2.7,14.8-26.5-7.4q-6.9-2-11.1.3c-2.8,1.5-4.8,4.3-6,8.6-1.3,4.6-.7,8.5,1.7,11.6s6.7,5.5,12.8,7.2c6.7,1.9,11.9,2.5,15.6,2s6-2.4,6.8-5.5l-1.7,13.4a22.57,22.57,0,0,1-7.4,4.5,25.64,25.64,0,0,1-8.9,1.4,40.76,40.76,0,0,1-10.4-1.6C481.47,304.43,473.77,299.83,469.67,293.63Zm60.7-39.4q2.4-9-.9-15.3t-12-8.7a33.68,33.68,0,0,0-10.9-1.2,35.24,35.24,0,0,0-10.4,2.1l-10.4-12.6a35.09,35.09,0,0,1,16-6,48.54,48.54,0,0,1,19.4,1.7q11.1,3.15,18,9.3a28.24,28.24,0,0,1,8.9,15c1.4,5.9,1.1,12.4-.8,19.5l-15.9,58.8-16.7-4.7Z"/><path class="cls-3" d="M567.07,320.73c-2.3-5-2.3-11.5-.1-19.5l25.5-94.4,17.6,4.9-25.6,94.5a9.46,9.46,0,0,0-.1,5.5,4.66,4.66,0,0,0,3.3,2.9l8.4,2.3-4.6,17.1-10.2-2.8C574.07,329.23,569.37,325.73,567.07,320.73Zm8.9-89.8,40.3,11.2-4.4,16.2-40.3-11.2Z"/><path class="cls-3" d="M198.57,462.53s-2.5-1.3-7.6-4a64,64,0,0,1-13.7-9.5,72.78,72.78,0,0,1-10.8-12.5l14.7-10.7a50.22,50.22,0,0,0,13.2,13.9,57.25,57.25,0,0,0,17.8,8.4c9.1,2.5,16.6,2.8,22.5.7a17.18,17.18,0,0,0,11.4-12.5v-.1c1.2-4.5,1-8.3-.5-11.6a22.68,22.68,0,0,0-7.2-8.3,107.51,107.51,0,0,0-13-7.4c-.2-.1-.3-.2-.5-.2a.74.74,0,0,1-.5-.2l-1.2-.6a134.94,134.94,0,0,1-19.1-10.7,29.55,29.55,0,0,1-10.7-13.9c-2.4-5.9-2.4-13.5.1-22.5v-.1c2.1-7.9,5.7-14.2,10.7-18.9a34.26,34.26,0,0,1,18.7-8.6c7.5-1.1,15.9-.3,25.2,2.3a57.41,57.41,0,0,1,12.8,5.2,68,68,0,0,1,11.6,8,72,72,0,0,1,10.4,10.9L269,371.13a59.32,59.32,0,0,0-12.1-12,44.87,44.87,0,0,0-13.5-6.7c-8.6-2.4-15.7-2.5-21.4-.3s-9.4,6.5-11.1,12.9v.1q-1.8,6.6.9,11.4a23.49,23.49,0,0,0,7.6,8.1,146.69,146.69,0,0,0,14.2,8l.6.3.6.3c.3.1.6.3.9.4a3.44,3.44,0,0,0,.9.4,104.68,104.68,0,0,1,17.5,10.9A31.22,31.22,0,0,1,264,419c2.1,5.8,2,12.9-.2,21.3v.2c-2.1,7.8-5.7,14-10.9,18.6a35.08,35.08,0,0,1-19.2,8.3c-7.7,1-16.3.1-26-2.6C201.57,463.33,198.57,462.53,198.57,462.53Z"/><path class="cls-3" d="M302.07,391.43l17.6,4.9L295,487.83l-17.6-4.9Zm44.5,51.2c1.7-6.5,1.5-11.9-.9-16.4s-6.4-7.5-12.4-9.1c-5.7-1.6-10.6-1.3-14.6,1s-6.7,6.2-8.3,11.8l3-18.1a33.47,33.47,0,0,1,14.3-9.8,26.49,26.49,0,0,1,16-.4c9.7,2.7,16.3,8,19.9,16s3.7,17.9.5,29.8l-15,55.6-17.6-4.9Z"/><path class="cls-3" d="M381.27,505.83c-4.2-6.2-5-14.1-2.4-23.6,2.4-9.1,6.8-15.1,13-18.3s14.4-3.3,24.5-.5l25.4,7.1-2.7,14.8-26.5-7.4q-6.9-2-11.1.3c-2.8,1.5-4.8,4.3-6,8.6-1.3,4.6-.7,8.5,1.7,11.6s6.7,5.5,12.8,7.2c6.7,1.9,11.9,2.5,15.6,2s6-2.4,6.8-5.5l-1.7,13.4a22.57,22.57,0,0,1-7.4,4.5,25.64,25.64,0,0,1-8.9,1.4,40.76,40.76,0,0,1-10.4-1.6C393.07,516.63,385.47,512,381.27,505.83Zm60.8-39.4q2.4-9-.9-15.3t-12-8.7a33.68,33.68,0,0,0-10.9-1.2,35.24,35.24,0,0,0-10.4,2.1l-10.4-12.6a35.09,35.09,0,0,1,16-6,48.54,48.54,0,0,1,19.4,1.7q11.1,3.15,18,9.3a28.24,28.24,0,0,1,8.9,15c1.4,5.9,1.1,12.4-.8,19.5L443.07,529l-16.7-4.7Z"/><path class="cls-3" d="M504.47,408.33l17.6,4.9-34.7,128.2-17.6-4.9Zm-17.7,95.6,61.4-44,20.7,5.8-89,59.3Zm25.7-12.3,14.5-8.9,21.5,75.7-19.1-5.3Z"/></svg>
