<svg xmlns="http://www.w3.org/2000/svg" viewBox="0 0 750 750"><defs><style>.cls-1{fill:#e9aa77;}.cls-2{fill:#fd9128;}.cls-3{fill:#003673;}.cls-4{fill:#fff;}</style></defs><title>privatsnak</title><g id="Layer_2" data-name="Layer 2"><g id="D1_bbg" data-name="D1 bbg"><rect class="cls-1" x="-0.75" y="1.5" width="750.38" height="750"/></g><path class="cls-2" d="M83.26,494.63,601.53,642.86c9.13,2.63,17.65.88,19.05-3.87l50-171.67c1.41-4.74-4.91-10.71-14-13.34L138.32,305.75c-9.13-2.63-17.65-.88-19.06,3.86L69.21,481.29C67.81,486,74.13,492,83.26,494.63"/><polyline class="cls-2" points="93.89 586.31 117.68 502.89 191.36 523.7"/><path class="cls-3" d="M44.1,278.18h0a20.89,20.89,0,0,1-14-25.56L74.22,91.75A19.93,19.93,0,0,1,98.48,77.43h0l.55.15L706.9,255.93a20.9,20.9,0,0,1,14,25.56L676.69,442.38h0a19.92,19.92,0,0,1-24.28,14.3h0l-.55-.15L44.1,278.18"/><polyline class="cls-3" points="154.39 310.49 83.61 289.77 64.56 359.4"/><path class="cls-4" d="M189.87,148.83l15.45,4.3L174.85,265.71l-15.46-4.3Zm-6.59,56.11,35.21,9.75a15.55,15.55,0,0,0,9.4,0,16.16,16.16,0,0,0,7.73-5.18,27,27,0,0,0,5.53-20.37,17.27,17.27,0,0,0-4-8.52A17,17,0,0,0,229,175.7L193.82,166l4-15,34.68,9.66a35.3,35.3,0,0,1,16.16,9.13A30.81,30.81,0,0,1,257,185.1a40.13,40.13,0,0,1-.79,19.23,39,39,0,0,1-9,16.95,30,30,0,0,1-14.84,8.78,35.7,35.7,0,0,1-18.44-.53l-34.69-9.66Z"/><path class="cls-4" d="M276.18,207.49l15.46,4.3L270,292.14l-15.46-4.3Zm34,25.82a19,19,0,0,0-6.85-3.34c-4.92-1.41-9.05-1.05-12.47,1s-5.8,5.44-7.2,10.36l2.63-15.9a29.69,29.69,0,0,1,12.38-8.6,22.41,22.41,0,0,1,13.79-.44,29.46,29.46,0,0,1,9.31,4.3,22.05,22.05,0,0,1,6.32,6.76l-13.87,11.15A12.61,12.61,0,0,0,310.17,233.31Z"/><path class="cls-4" d="M342.31,225.93l15.45,4.3-21.69,80.35-15.45-4.3ZM351,193.7,366.45,198l-4.3,15.8-15.45-4.3Z"/><path class="cls-4" d="M427.48,249.55,443.64,254l-51.28,72.18L380.68,323l-7.82-88.6L389,238.84l3.69,62.7Z"/><path class="cls-4" d="M441.8,334.64c-3.69-5.44-4.39-12.38-2.11-20.72,2.11-8,6-13.26,11.41-16.07s12.65-2.9,21.52-.44l22.3,6.23-2.37,13-23.27-6.5q-6.06-1.75-9.75.26c-2.45,1.32-4.21,3.78-5.26,7.56-1.15,4-.62,7.46,1.49,10.18s5.88,4.83,11.24,6.32c5.88,1.67,10.45,2.2,13.7,1.76s5.27-2.11,6-4.83l-1.49,11.77a20.08,20.08,0,0,1-6.5,3.95,22.58,22.58,0,0,1-7.82,1.23,35.32,35.32,0,0,1-9.13-1.41C452.16,344.12,445.4,340.08,441.8,334.64ZM495.1,300q2.1-7.91-.79-13.43T483.77,279a29.44,29.44,0,0,0-9.57-1.06,31,31,0,0,0-9.13,1.85l-9.14-11.07A30.67,30.67,0,0,1,470,263.43a42.32,42.32,0,0,1,17,1.49,39.57,39.57,0,0,1,15.81,8.16,24.87,24.87,0,0,1,7.81,13.18c1.23,5.18,1,10.88-.7,17.12L496,355l-14.67-4.12Z"/><path class="cls-4" d="M527.32,358.44c-2-4.39-2-10.1-.08-17.13l22.39-82.89,15.45,4.3-22.48,83a8.2,8.2,0,0,0-.08,4.83,4,4,0,0,0,2.89,2.55l7.38,2-4,15-9-2.46C533.47,365.9,529.34,362.83,527.32,358.44Zm7.82-78.86,35.39,9.84-3.87,14.22-35.38-9.83Z"/><path class="cls-4" d="M203.74,483s-2.2-1.14-6.67-3.51a56.09,56.09,0,0,1-12-8.34,64.1,64.1,0,0,1-9.49-11l12.91-9.39a44,44,0,0,0,11.59,12.2,50.18,50.18,0,0,0,15.63,7.38c8,2.19,14.58,2.46,19.76.61a15.09,15.09,0,0,0,10-11v-.09c1.05-3.95.88-7.29-.44-10.19a19.9,19.9,0,0,0-6.32-7.28,92.55,92.55,0,0,0-11.42-6.5c-.17-.09-.26-.18-.44-.18a.66.66,0,0,1-.44-.17l-1-.53a117.32,117.32,0,0,1-16.77-9.4,26,26,0,0,1-9.4-12.2c-2.1-5.18-2.1-11.86.09-19.76v-.09c1.85-6.94,5-12.47,9.4-16.59a30,30,0,0,1,16.42-7.56c6.58-1,14-.26,22.13,2A50.81,50.81,0,0,1,258.45,376a60.21,60.21,0,0,1,10.18,7,63.18,63.18,0,0,1,9.13,9.58l-12.2,10.09a52.26,52.26,0,0,0-10.63-10.53,39.36,39.36,0,0,0-11.85-5.89c-7.55-2.1-13.79-2.19-18.79-.26s-8.26,5.71-9.75,11.33v.09q-1.57,5.79.79,10a20.56,20.56,0,0,0,6.67,7.11,128.36,128.36,0,0,0,12.47,7l.53.27.53.26c.26.09.52.26.79.35a3.12,3.12,0,0,0,.79.35,92.59,92.59,0,0,1,15.36,9.57,27.4,27.4,0,0,1,8.7,12.39c1.84,5.09,1.75,11.32-.18,18.7v.18c-1.84,6.84-5,12.29-9.57,16.33a31,31,0,0,1-16.86,7.29c-6.76.87-14.31.08-22.83-2.29C206.37,483.66,203.74,483,203.74,483Z"/><path class="cls-4" d="M294.62,420.52l15.46,4.3-21.69,80.35-15.46-4.3Zm39.08,45c1.49-5.71,1.32-10.45-.79-14.4s-5.62-6.59-10.89-8c-5-1.41-9.31-1.14-12.82.88s-5.88,5.44-7.29,10.36l2.64-15.9a29.27,29.27,0,0,1,12.55-8.6,23.17,23.17,0,0,1,14-.35c8.52,2.37,14.32,7,17.48,14s3.25,15.71.44,26.16L335.9,518.52l-15.46-4.31Z"/><path class="cls-4" d="M364.17,521c-3.69-5.45-4.39-12.39-2.11-20.73,2.11-8,6-13.26,11.42-16.07s12.64-2.89,21.51-.44L417.3,490l-2.37,13-23.27-6.49q-6.06-1.75-9.75.26c-2.46,1.32-4.22,3.78-5.27,7.55-1.14,4-.61,7.47,1.49,10.19s5.89,4.83,11.24,6.32c5.89,1.67,10.45,2.2,13.7,1.76s5.27-2.11,6-4.83l-1.49,11.76a19.83,19.83,0,0,1-6.5,4,22.56,22.56,0,0,1-7.81,1.22,35.75,35.75,0,0,1-9.14-1.4C374.53,530.46,367.86,526.42,364.17,521Zm53.39-34.6q2.12-7.9-.79-13.44t-10.54-7.64a29.43,29.43,0,0,0-9.57-1.05,31,31,0,0,0-9.13,1.84L378.4,455a30.72,30.72,0,0,1,14.05-5.27,42.63,42.63,0,0,1,17,1.49,39.71,39.71,0,0,1,15.81,8.17,24.88,24.88,0,0,1,7.81,13.17c1.23,5.18,1,10.89-.7,17.13l-14,51.63-14.67-4.13Z"/><path class="cls-4" d="M472.35,435.36l15.46,4.3L457.34,552.24l-15.46-4.31Zm-15.54,83.95,53.92-38.64,18.18,5.09-78.16,52.08Zm22.57-10.8,12.73-7.82L511,567.16l-16.77-4.65Z"/></g></svg>
