<svg id="Layer_1" data-name="Layer 1" xmlns="http://www.w3.org/2000/svg" viewBox="0 0 750 750"><defs><style>.cls-1{fill:#adcbe3;}.cls-2{fill:#29a4db;}.cls-3{fill:#fff;stroke:#29a4db;stroke-width:0.75px;}.cls-3,.cls-5{stroke-miterlimit:10;}.cls-4{fill:#333;}.cls-5{fill:none;stroke:#000;stroke-width:18px;}</style></defs><title>redesign</title><rect class="cls-1" x="-0.37" y="-0.5" width="750" height="750"/><ellipse class="cls-2" cx="363.1" cy="368.99" rx="311.8" ry="321.51"/><ellipse class="cls-3" cx="363.1" cy="368.99" rx="271.13" ry="286.45"/><path d="M428.34,299.94c7.43-13.31,6.47-30.47-1-43.77a40.6,40.6,0,0,0-7.45-9.78,61.69,61.69,0,0,0-7.64-5.9c-5.4-3.69-11-7.24-17.33-9-7.11-2-14.7-1.53-21.93,0a99.06,99.06,0,0,1-11.16,2.18c-3.75.34-7.55,0-11.26.59A21.85,21.85,0,0,0,336,243.82a53.56,53.56,0,0,0-4.29,9.36,110.77,110.77,0,0,1-15.05,26.36l-.05,1a210.51,210.51,0,0,1-4.19,22,145.15,145.15,0,0,0-4.95,22.21,28,28,0,0,0-.24,9.36,49.58,49.58,0,0,0,2.11,6.56,36.9,36.9,0,0,1,1.36,18C309.63,365,307,370.8,305,376.82s-3.16,12.6-1.26,18.64l-3.16,21.27,4.78,25.19a44.55,44.55,0,0,0,2.13,8.3c1.31,3.31,3.39,6.25,4.93,9.46,2.27,4.73,3.33,9.94,4.37,15.08.89,4.44,1.79,8.89,2.28,13.39,1.31,12.06-.33,24.23-2.06,36.24-.34,2.4-.57,5.17,1.12,6.9a5.87,5.87,0,0,0,2.74,1.45,12.49,12.49,0,0,0,11.68-3.13c5.82-5.44,6.82-13.34,6.65-20.81A63.89,63.89,0,0,0,337.92,497c-1-4.52-2.51-8.88-3.61-13.36a107.81,107.81,0,0,1-2.62-19.44c-.17-2.87-.27-5.86.85-8.51,1.48-3.52,4.88-5.89,7.67-8.32a8.58,8.58,0,0,1,4.49-2.13c5.84-.74,7.82,5.63,10.85,9.84,3.45,4.81,9.62,7.86,11.08,13.59.81,3.12,0,6.41-.85,9.52-2.37,8.76-5,17.49-6.31,26.47s-1.28,18.33,1.59,26.94a4.3,4.3,0,0,0,1.67,2.56,4.39,4.39,0,0,0,2.64.25,52.85,52.85,0,0,0,7.36-1.43,6.23,6.23,0,0,0,2.82-1.35,6.16,6.16,0,0,0,1.39-2.88c3.88-14.43,1.83-30.35,8.16-43.88,2.44-5.23,6-9.86,8.34-15.16,4.59-10.62,3.46-22.69,2.94-34.25s-.18-19.62,4.34-29l.29-2.31c.35-1.43,1.81-5.54,1.18-6.88-1.7-3.64-1-6.75-1.06-10.77a12.72,12.72,0,0,1,1.78-7.5c2-2.95,5.66-4.21,8.72-6,5.07-3,8.82-7.94,11.44-13.25s4.18-11.05,5.74-16.75c1.14-4.16,2.28-8.55,1.19-12.72a41.33,41.33,0,0,0-2.28-5.62c-4.8-11.3-2.83-15.66.9-25"/><path class="cls-4" d="M429.64,300.7a47.3,47.3,0,0,0,1.12-41c-6-13.67-19.69-24.44-33.72-29.08-7.92-2.62-16.36-2.18-24.43-.54-4.87,1-9.52,2.15-14.52,2.29-4.19.12-8.26.14-12.21,1.68-6.39,2.49-10.8,7.44-13.52,13.62-3.62,8.22-6.89,16.27-11.8,23.85-1.59,2.45-4.53,5.28-5.38,8.06-.63,2.08-.56,4.71-.93,6.88A153.85,153.85,0,0,1,311,302.2c-2.41,8.59-4.81,17.41-5.45,26.35-.29,4,.54,7.22,1.79,10.95a39.34,39.34,0,0,1,2.34,15.61c-.68,9.25-5.55,17.4-7.49,26.34a31.42,31.42,0,0,0-.67,10.67c.26,2.05.7,2.89.52,4.8-.67,7.1-3.84,15.07-2.52,22.14,1.71,9.13,3.07,18.45,5.29,27.46a43.82,43.82,0,0,0,4.67,10.77,50.71,50.71,0,0,1,5,13.58c2.2,9.8,3.86,19.62,3.55,29.69-.15,4.79-.6,9.56-1.18,14.32-.52,4.2-1.91,8.94-1.47,13.2.58,5.72,6.37,7.3,11.38,6.22,6.22-1.35,10.48-6.71,12.41-12.52,5.31-15.91-2.86-31.54-5-47.1a80.45,80.45,0,0,1-1.07-13.94c.24-5.42,3.83-9.08,8-12.12,8.13-5.91,11.8,6.44,16.63,11.12,2.59,2.5,5.73,4.82,7,8.28,1.89,5-.79,11.05-2.12,15.92-2.27,8.29-4.43,16.66-5.21,25.25-.66,7.31-.89,17.24,2.63,24,2.54,4.88,10.84,2.57,14.75.68,5.47-2.65,5.26-12.66,5.84-17.87,1-8.94,1.23-18.18,4.29-26.74,2.82-7.91,8.56-14.35,11.15-22.36,2.54-7.85,2.46-16.29,2.11-24.44-.36-8.47-1.25-17.13.5-25.51,1.17-5.66,3.75-10.74,4.84-16.44.59-3.12-.81-5.31-1-8.47-.27-4.94-.46-11.28,3.95-14.45,2.68-1.93,5.82-3.06,8.45-5.1a31,31,0,0,0,6.4-6.88c4.59-6.62,6.84-14.55,8.9-22.23,1-3.74,2-7.62,1.55-11.52s-2.69-7.31-3.94-11c-2.6-7.63-.67-13.68,2.2-20.84.71-1.8-2.19-2.58-2.9-.8-2.12,5.29-4.31,10.57-3.63,16.39a33.49,33.49,0,0,0,2.38,8.54c2.12,5.23,3.56,9,2.37,14.79-1.61,7.86-4.11,16.39-8.31,23.25a28,28,0,0,1-8.49,9.06c-2.51,1.64-5.41,2.68-7.7,4.63-4.68,4-4.45,10.49-4.23,16.13.13,3.13,1.49,5.72.81,8.85-.39,1.84-.8,4-1.36,5.76-1.87,5.86-3.82,11-4.19,17.24-.48,7.94.45,15.89.56,23.83.12,9.16-1,17.8-5.58,25.88-3.82,6.78-7.64,12.89-9.36,20.59-1.61,7.17-2,14.54-2.78,21.81-.48,4.3-.61,10.8-3.75,14a8.86,8.86,0,0,1-6.16,2.6c-5.15.28-5.59-1.89-6.44-5.7-2.06-9.23-1.17-18.85.73-28,1.67-8.11,4.77-16,6.09-24.18.91-5.54-.86-9.76-4.74-13.68-2.49-2.51-5.24-4.65-7.23-7.63-1.44-2.16-2.54-4.59-4.3-6.53-7.66-8.49-20.4,3.41-21.6,11.81-2.25,15.77,6,30.62,7.23,45.95.64,7.9.59,17.44-5.44,23.43-4.24,4.23-13.1,5.81-13.71-2.13-.31-4.18,1.35-9.63,1.81-13.84,1.79-16.35.76-33.92-4.92-49.52C314,459,312,456,310.32,452.67c-2.14-4.17-3-8.52-3.87-13.09q-1.2-6.3-2.39-12.59c-.62-3.25-1.93-7.09-1.95-10.36,0-6.8,2.83-13.61,3-20.41.07-2.23-.75-4.36-.82-6.65a38.08,38.08,0,0,1,2.41-13.17c2.42-7.32,5.61-14.38,6-22.2a38.4,38.4,0,0,0-.92-10.36c-1-4.56-3.29-8.64-3.34-13.4-.12-9.12,3-18.76,5.43-27.44,1.34-4.79,2.2-9.72,3.06-14.61.37-2.09.74-4.19,1-6.29.39-3.09,2.48-5,4.22-7.61a114.63,114.63,0,0,0,11-20.91c3.5-8.65,7.82-16.15,17.81-17.82,4.28-.72,8.65-.23,12.95-.85,4.11-.6,8.1-1.83,12.21-2.49,10.23-1.64,19.61-.19,28.6,5,7.27,4.22,14.54,9.13,19.31,16.19a46.76,46.76,0,0,1,7.75,22.05,42.3,42.3,0,0,1-4.75,23.5c-.91,1.7,1.68,3.22,2.59,1.51Z"/><path d="M338.07,240.51c-4.84-.6-9.47,1.94-13.55,4.6q-2.58,1.68-5.08,3.48a19.93,19.93,0,0,0-4.72,4.29,21.8,21.8,0,0,0-2.85,6.77,41.41,41.41,0,0,0-1.86,8.56,7.26,7.26,0,0,0,.14,2.46c.5,1.8,2.06,3.08,3.54,4.22l4.46,3.48a9,9,0,0,1,2.19,2.13c1.07,1.65,1,3.76,1.18,5.71A18.11,18.11,0,0,0,327,297.43a8.57,8.57,0,0,0,3.11,2c2.41.81,5-.1,7.36-1.15a11.65,11.65,0,0,0,3.24-2c1.67-1.59,2.36-3.92,2.85-6.17,2.09-9.51,1.86-19.64,5.74-28.57.93-2.14,2.11-4.38,1.66-6.66"/><path class="cls-4" d="M338.07,239c-6.44-.35-11.74,3-16.87,6.52-5,3.4-8.45,6.47-10.35,12.3-1.57,4.79-4.13,11.5-.59,15.95,2.15,2.71,5.92,3.94,8,6.63s1.72,7.77,3,11c1.64,4.22,5.24,9.31,10.15,9.79,4.19.4,9.69-2.17,11.86-5.77,3.19-5.27,3-12.79,3.88-18.75a66.46,66.46,0,0,1,2.42-11.52c1.17-3.54,3.06-6.45,2.92-10.26-.07-1.92-3.07-1.93-3,0,.18,4.91-3.31,10.35-4.29,15.24s-1.39,9.68-2.13,14.51c-.84,5.43-1.62,11-7.6,12.81-8.86,2.74-11.69-6.87-12.65-13.5-.56-3.83-2-5.39-5.11-7.83-1.73-1.36-4.68-3-5.72-5-1.51-2.92.24-7.36,1.07-10.28,1.71-5.94,4.56-9.29,9.65-12.77,4.65-3.19,9.48-6.43,15.35-6.11,1.93.1,1.92-2.9,0-3Z"/><path d="M407.5,237.69a51.09,51.09,0,0,1,11.32,1.49,23.32,23.32,0,0,1,4.43,1.25,30.47,30.47,0,0,1,3.38,1.91,45.68,45.68,0,0,0,13.12,5.14c2.61.6,5.41,1.08,7.4,2.86a13.93,13.93,0,0,1,3,4.54l2.74,5.65c1.2,2.49,2.43,5.14,2.1,7.88-.71,5.9-8.1,9.14-9.05,15a30.82,30.82,0,0,1-.39,3.06,6.52,6.52,0,0,1-5.52,4.35,13.93,13.93,0,0,1-7.23-1.37c-2.28-1-4.46-2.2-6.83-3-1.92-.61-4-.92-5.71-1.91a16.29,16.29,0,0,1-3-2.38c-3.44-3.2-6.95-6.5-9.1-10.68-1.77-3.44-2.52-7.31-3.26-11.11"/><path class="cls-4" d="M407.5,239.19c6.08.1,12.48,1.14,17.82,4.11a56.91,56.91,0,0,0,14,5.63c3.59.9,6.4,1.58,8.55,4.87a58.33,58.33,0,0,1,3.33,6.78c1.6,3.4,3,6.69,1.32,10.34-.93,2-2.87,3.63-4.3,5.32a15.62,15.62,0,0,0-3.83,7.17c-2.07,10.2-11,4.19-17.2,2-3.1-1.12-5.84-1.57-8.44-3.8a58.09,58.09,0,0,1-5-4.83c-4.52-4.88-6.23-10.34-7.47-16.73-.37-1.89-3.26-1.09-2.9.8,1.37,7,3.36,12.77,8.25,18.06a43.15,43.15,0,0,0,6.73,6.3c3,2.1,6.87,2.57,10.22,4,4.53,2,9.59,4.77,14.51,2.19a7.82,7.82,0,0,0,3.83-4.5c.56-1.66.34-3.41,1.06-5.07a18,18,0,0,1,3.14-4.36c3.07-3.54,6-6.86,5.12-11.86-.52-3.05-2.17-5.87-3.5-8.63s-2.36-5.67-4.59-7.67-5.21-2.53-8.06-3.25a49.49,49.49,0,0,1-12.77-5c-6-3.44-12.95-4.74-19.88-4.85-1.93,0-1.93,3,0,3Z"/><path class="cls-4" d="M407.18,297.27c-4.91,6.23-6.38,12.71-9.25,19.89a64.59,64.59,0,0,1-6.31,11.43c-1.34,2-2.72,4.63-4.46,6.33-2.78,2.72-5.43,2.23-8.87,1.76-5.08-.71-10.17-.92-13.12-5.77-2.26-3.72-3.48-8.07-4.6-12.25-1.68-6.29-2.68-13.26-9.13-16.41-1.3-.63-2.44,1.31-1.14,1.95,5.57,2.71,6.49,8.81,7.89,14.22a57.34,57.34,0,0,0,4.4,12.46c3.76,7.15,10.79,7.84,18.31,8.38,7.8.57,11.39-7.27,14.91-13.07,5.31-8.76,6.56-19.2,13-27.33.89-1.12-.69-2.73-1.59-1.59Z"/><path class="cls-4" d="M405.44,331.94c1.32,1.94-9.85,9-11.61,10.47-4.14,3.53-8.81,5.89-13.12,9.11-7.59,5.66-7.89,15.22-8.12,24-.08,2.82-1.23,9.27.84,11.64,1.8,2.07,7.56,1.63,9.81,1.46a22.51,22.51,0,0,0,11.6-4.58c4.84-3.42,11-9.84,17.17-10a1.13,1.13,0,0,0,0-2.25c-8.65.18-14.81,9-22.08,12.73a19.61,19.61,0,0,1-10.1,1.85c-2.27-.15-3.4.08-4.44-1.89a9,9,0,0,1-.58-4.25c-.08-5.78-.07-12,1.28-17.67,1.53-6.39,5.82-9.22,11.1-12.43a76.07,76.07,0,0,0,9.38-7.11,35.65,35.65,0,0,1,5.89-4.2c1.49-.8,3.45-1.4,4.59-2.76a4.12,4.12,0,0,0,.34-5.25c-.81-1.19-2.76-.07-1.95,1.14Z"/><circle class="cls-5" cx="362.57" cy="293.94" r="139.36"/><line class="cls-5" x1="211.03" y1="291.97" x2="211.03" y2="560.74"/><line class="cls-5" x1="513.23" y1="289.06" x2="513.23" y2="557.83"/><path class="cls-4" d="M334.1,344.57a26.34,26.34,0,0,0,9.11,14.72,107.54,107.54,0,0,1,16.26,17.18c9.64,12.84,20.93,26.52,20.71,43.38,0,2-.08,5.95-1.49,7.5s-5.25,1.4-7.34,1.5a17.23,17.23,0,0,1-13.74-5.13c-5.13-5.08-5.3-12.28-9.6-17.67-3.91-4.9-10.89-7.73-16-11.17a92.55,92.55,0,0,1-9.63-6.94c-4.41-3.89-3.63-6.95-3.74-12.27a1.13,1.13,0,0,0-2.25,0c.12,5.64-.67,9.18,3.85,13.37,5,4.58,11.12,8.22,16.81,11.8,3.42,2.15,7.6,4.06,9.87,7.53,1.87,2.85,2.5,6.34,3.88,9.42A24.36,24.36,0,0,0,360.91,429c4.81,2.73,12,3.17,17.23,1.5,4.16-1.33,4.36-7.86,4.26-11.49-.18-6-1-12.54-3.76-17.91-3.45-6.75-8.15-13.07-12.52-19.25s-8.83-12.36-14.14-17.76c-6.39-6.49-13.6-10.58-15.71-20.11-.32-1.41-2.49-.81-2.17.6Z"/></svg>
