<svg id="Layer_1" data-name="Layer 1" xmlns="http://www.w3.org/2000/svg" viewBox="0 0 750 750"><defs><style>.cls-1{fill:#ea5045;}.cls-2,.cls-3{fill:#fff;}.cls-3{font-size:72px;font-family:Arial-BoldMT, Arial;font-weight:700;}.cls-4{letter-spacing:-0.02em;}</style></defs><title>webprototype</title><rect class="cls-1" x="-0.29" y="-0.5" width="750" height="750"/><g id="Group_1585" data-name="Group 1585"><g id="Artwork_2" data-name="Artwork 2"><g id="Artwork_2-2" data-name="Artwork 2-2"><path id="Path_115" data-name="Path 115" class="cls-2" d="M603.61,206.86H504.25v25H602c33.53,0,43.75,10.63,46.2,27H548c-37.21,0-54,14.31-54,46.61s16.76,47,54.38,47h124.3V269.47c.41-42.16-22.49-62.61-69.1-62.61M649,327.9H551.26c-30.66,0-31.89-7-31.89-22.49s3.27-21.67,32.3-21.67h97Z"/><path id="Path_116" data-name="Path 116" class="cls-2" d="M312.06,299.68h99.37c37.21,0,54-14.31,54-46.2S449.05,206.86,411,206.86H357.86c-63,0-72,35.16-72,73.19s9,72.78,71.55,72.78H459.26V328.31H359.5c-34.35,0-44.16-9-47.44-28.22M359.5,231h49.06c29,0,31.89,7,31.89,22.49s-2.85,21.26-32.3,21.26H310.89c.81-30.67,8.58-43.75,48.65-43.75"/><path id="Path_117" data-name="Path 117" class="cls-2" d="M237.66,206.86,119.08,320.12V206.86H94.54v146h26.17l56.79-54.38,64.6,54.38H281L195.5,281.28l77.73-74.42Z"/></g></g></g><text class="cls-3" transform="translate(141.18 567.18)"><tspan class="cls-4">W</tspan><tspan x="66.66" y="0">eb Prototype</tspan></text></svg>
