<svg xmlns="http://www.w3.org/2000/svg" viewBox="0 0 510.44 510.44"><defs><style>.cls-1{fill:#29a4db;}.cls-2{fill:#fff;stroke:#29a4db;stroke-width:0.75px;}.cls-2,.cls-4{stroke-miterlimit:10;}.cls-3{fill:#333;}.cls-4{fill:none;stroke:#000;stroke-width:18px;}</style></defs><title>logo4</title><g id="Layer_11" data-name="Layer 11"><ellipse class="cls-1" cx="249.85" cy="254.05" rx="232.24" ry="239.48"/><ellipse class="cls-2" cx="249.85" cy="254.05" rx="201.95" ry="213.37"/><path d="M298.45,202.62c5.53-9.92,4.82-22.7-.73-32.61a30.27,30.27,0,0,0-5.55-7.28,44.89,44.89,0,0,0-5.69-4.39c-4-2.75-8.22-5.4-12.91-6.7-5.3-1.47-10.95-1.14-16.33,0a74.09,74.09,0,0,1-8.32,1.63c-2.79.25-5.62,0-8.38.44a16.28,16.28,0,0,0-10.86,7.12,40,40,0,0,0-3.19,7,82.18,82.18,0,0,1-11.21,19.63l0,.78a154.9,154.9,0,0,1-3.12,16.4,107.12,107.12,0,0,0-3.68,16.54,20.42,20.42,0,0,0-.18,7,37.57,37.57,0,0,0,1.57,4.89,27.49,27.49,0,0,1,1,13.41c-.81,4.64-2.8,9-4.25,13.47s-2.36,9.39-.94,13.89l-2.35,15.84,3.56,18.76a32.78,32.78,0,0,0,1.58,6.18c1,2.47,2.53,4.66,3.68,7.05a47.29,47.29,0,0,1,3.25,11.23c.67,3.31,1.33,6.62,1.7,10,1,9-.25,18-1.53,27-.26,1.78-.43,3.85.83,5.14a4.34,4.34,0,0,0,2,1.08,9.3,9.3,0,0,0,8.7-2.33c4.33-4.05,5.08-9.94,4.95-15.5a47.21,47.21,0,0,0-1-8.79c-.71-3.36-1.87-6.61-2.69-9.95A80,80,0,0,1,226.46,325a14.11,14.11,0,0,1,.63-6.34c1.11-2.62,3.64-4.38,5.72-6.2a6.45,6.45,0,0,1,3.34-1.58c4.35-.55,5.83,4.2,8.08,7.33,2.57,3.58,7.17,5.86,8.26,10.12.6,2.33,0,4.78-.64,7.1-1.76,6.52-3.71,13-4.69,19.71s-1,13.65,1.18,20.07a3.17,3.17,0,0,0,1.24,1.9,3.22,3.22,0,0,0,2,.19A39.58,39.58,0,0,0,257,376.2a3.53,3.53,0,0,0,3.13-3.15c2.89-10.74,1.37-22.6,6.08-32.68,1.82-3.89,4.51-7.35,6.22-11.29,3.41-7.91,2.57-16.91,2.18-25.51S274.51,289,277.88,282l.22-1.72c.25-1.06,1.34-4.12.88-5.12-1.27-2.71-.74-5-.8-8a9.56,9.56,0,0,1,1.33-5.59c1.5-2.19,4.21-3.13,6.49-4.5a23.13,23.13,0,0,0,8.52-9.86,69.39,69.39,0,0,0,4.28-12.48c.85-3.1,1.7-6.37.89-9.48A30.25,30.25,0,0,0,298,221c-3.58-8.42-2.11-11.67.67-18.62"/><path class="cls-3" d="M299.75,203.38c11.26-21.64-3.14-47-25.78-53.19-5.62-1.53-11.48-1.14-17.13,0a72.17,72.17,0,0,1-9.6,1.67c-3.4.2-6.71,0-10,1.16-11,4-12.87,17.56-18.34,26.48-2.29,3.73-4.82,6.2-5.43,10.5A120.47,120.47,0,0,1,211,202.9a171.72,171.72,0,0,0-4,17.84,23.31,23.31,0,0,0-.18,7.77c.74,3.83,2.54,7.16,2.86,11.13.57,7.15-2.46,13.23-4.53,19.84-1.62,5.18-1.22,9.42-1,14.52s-2.37,10.43-2.31,15.61c.06,6.15,2.4,13.08,3.61,19.16,1.31,6.57,5.09,11.61,7,17.92a83.74,83.74,0,0,1,3.44,20c.35,7.83-1,15.39-1.82,23.14-1.08,10.49,11.12,9.37,15.93,2.88,7.19-9.72,2.39-23.25-.11-33.63-1.56-6.42-4.36-17.51.79-22.76,2.77-2.83,6.4-5.45,9.72-1.45,1.69,2.05,2.67,4.46,4.54,6.42,1.71,1.8,4,3.29,5.25,5.45,2.42,4-.1,9.5-1.22,13.63-1.8,6.64-3.5,13.38-3.84,20.29-.23,4.56-.42,12.52,2.4,16.39,2.31,3.17,8.15,1.72,11.05.26,3.72-1.87,3.82-6.71,4.35-10.39,1-6.61,1-13.38,2.63-19.88,1.77-7.07,6.6-12.38,9-19.13s2.1-13.9,1.78-20.85c-.33-7.31-.87-14.73,1.75-21.72,1.6-4.25,2.63-7.69,1.8-12.18s-.66-10.31,3.36-12.88c2.54-1.63,5.1-2.73,7.3-4.86,4.31-4.19,6.66-9.91,8.38-15.55s3.55-11.08,1.61-16.83c-1.22-3.6-3.19-6.73-3.13-10.67.05-3.35,1.51-6.5,2.72-9.55.72-1.79-2.18-2.57-2.89-.8-1.49,3.74-3.06,7.47-2.79,11.57.4,6.27,4.92,11.13,3.72,17.56a56.88,56.88,0,0,1-5.59,16.57,22.65,22.65,0,0,1-5.23,6.56c-2.16,1.78-4.87,2.62-7,4.36-3.32,2.68-3.59,6.2-3.63,10.21,0,2.46.71,4.39.87,6.7a22.43,22.43,0,0,1-1.1,6c-1.22,4.09-2.85,7.77-3.24,12.13-.55,6.19.22,12.4.32,18.6.1,6.65-.61,13-3.78,18.95-2.67,5-5.71,9.43-7.1,15-1.24,5-1.58,10.17-2.1,15.27-.31,3.11-.35,6.61-1.41,9.55-1.88,5.2-8.17,6.29-10.3.2-2.19-6.28-.57-14.88.78-21.15,1.29-6,3.93-12.11,4.53-18.23.4-4.16-1.31-7.08-4.16-9.93a37.31,37.31,0,0,1-5.1-5.48c-1.16-1.73-2-3.77-3.58-5.21-5.35-4.93-13.35,1.48-15.57,6.83-1.78,4.27-.65,10-.09,14.4.76,6,2.81,11.48,4,17.34,1.27,6.13,2,14.49-1.42,20.1-3,4.88-10.89,7.87-11.16-.17-.11-3.08.9-6.48,1.22-9.55,1.26-11.89.41-24.47-3.48-35.88-1.75-5.13-5-9.38-6.2-14.76-.66-3-1.16-6.05-1.73-9.07-.64-3.36-1.95-7.14-2.13-10.54-.25-4.94,1.93-10.19,2.25-15.13a13.72,13.72,0,0,0,.09-1.43c-.13-4.42-.79-6.89.43-11.39,1.57-5.81,4.43-11.2,5.06-17.25.59-5.6-1-10.08-2.45-15.36-1.88-7,.93-15.78,2.89-22.57a119.85,119.85,0,0,0,2.76-12.32c.3-1.72.38-3.6.84-5.29.56-2.05,1.78-3.42,3-5.26a94.56,94.56,0,0,0,8.86-17.17c1.61-3.94,3.41-7.5,7.25-9.74,3.63-2.1,7.46-2,11.49-2.17,6.47-.36,12.58-2.82,19.11-2.69,7.95.15,14.58,4,20.85,8.5,12.84,9.25,17.31,27.07,10,41.2-.89,1.71,1.7,3.23,2.59,1.52Z"/><path d="M231.21,158.35c-3.6-.45-7.05,1.44-10.09,3.43-1.28.83-2.54,1.7-3.78,2.59a14.74,14.74,0,0,0-3.52,3.2,16.11,16.11,0,0,0-2.12,5,31.35,31.35,0,0,0-1.39,6.38,5.34,5.34,0,0,0,.11,1.83,6.54,6.54,0,0,0,2.63,3.15l3.32,2.59a6.49,6.49,0,0,1,1.63,1.59c.8,1.22.74,2.79.88,4.25a13.47,13.47,0,0,0,4.12,8.36,6.28,6.28,0,0,0,2.31,1.5c1.8.6,3.76-.07,5.48-.85a8.79,8.79,0,0,0,2.42-1.48,8.67,8.67,0,0,0,2.12-4.59c1.56-7.09,1.39-14.63,4.28-21.29.69-1.59,1.57-3.26,1.23-5"/><path class="cls-3" d="M231.21,156.85c-8.32-.3-18.3,6.83-20.76,14.7-1.07,3.42-2.89,8.3-.49,11.55,1.52,2.06,4.07,3,5.8,4.87,2,2.16,1.45,5.21,2.37,7.91,2.53,7.35,11.49,11.51,17,4.12,2.56-3.47,2.5-8.86,3-13a58.33,58.33,0,0,1,1.79-9.45c.92-3,2.39-5.34,2.42-8.49a1.5,1.5,0,0,0-3,0c0,3.71-2.57,8.08-3.27,11.74-.64,3.3-.94,6.65-1.45,10-.7,4.6-3.48,13.85-10.56,8.89-3.7-2.6-2.91-7-4.06-10.63-.65-2.07-2-3.13-3.67-4.44A22.17,22.17,0,0,1,213,182c-2-2.41-1-4.86-.33-7.42a15.38,15.38,0,0,1,6.65-9.8c3.56-2.54,7.33-5.09,11.87-4.93,1.93.06,1.93-2.94,0-3Z"/><path d="M282.93,156.25a37.64,37.64,0,0,1,8.43,1.11,17,17,0,0,1,3.3.93,23.8,23.8,0,0,1,2.51,1.42,33.94,33.94,0,0,0,9.78,3.83c1.94.45,4,.8,5.51,2.13a10.29,10.29,0,0,1,2.22,3.38l2,4.21c.89,1.85,1.81,3.83,1.57,5.87-.53,4.39-6,6.81-6.75,11.18a21.67,21.67,0,0,1-.29,2.27,4.83,4.83,0,0,1-4.11,3.24,10.31,10.31,0,0,1-5.38-1c-1.7-.72-3.33-1.64-5.09-2.2a22.57,22.57,0,0,1-4.25-1.42,11.94,11.94,0,0,1-2.23-1.78c-2.56-2.38-5.18-4.84-6.78-8a30.61,30.61,0,0,1-2.43-8.28"/><path class="cls-3" d="M282.93,157.75A30.65,30.65,0,0,1,296.42,161a46.89,46.89,0,0,0,8.43,3.55c1.45.42,3.25.51,4.63,1.17,2.95,1.41,3.69,3.63,4.93,6.19,1.32,2.75,3.14,5.42,1.86,8.69-.54,1.37-1.84,2.43-2.77,3.53a32.79,32.79,0,0,0-3.1,4.63,6.85,6.85,0,0,0-.36,1.55q-3.53,5.48-7.67,3.06c-1.8-.43-3.54-1.59-5.3-2.22-8.52-3-12.91-9.62-14.64-18.38-.37-1.89-3.26-1.09-2.89.8,1,5.33,2.62,9.72,6.35,13.74s6.91,5.41,11.91,7.38c4,1.56,8.59,4.29,12.66,1.38a6.25,6.25,0,0,0,2.33-3.65,17.2,17.2,0,0,1,3.67-7.09c2.26-2.67,3.87-5.26,3.09-8.86s-3.21-9.32-6-11.86a12.28,12.28,0,0,0-5.45-2.35,43.15,43.15,0,0,1-10.15-3.85,32.71,32.71,0,0,0-15-3.66c-1.93-.05-1.93,2.95,0,3Z"/><path class="cls-3" d="M282.49,200.42c-3.35,4.32-4.71,8.73-6.53,13.78a43.49,43.49,0,0,1-4.43,8.57,25,25,0,0,1-2.78,4.14c-2.79,2.67-5.78,3-9.3,2.52-4.13-.6-7.09-2.14-8.89-6.13a56.23,56.23,0,0,1-2.94-9.31c-1.08-4.13-2.3-7.83-6.31-9.9-1.28-.66-2.42,1.28-1.13,1.94,6.4,3.31,5.84,13.92,9,19.78,2.89,5.28,7.51,5.81,13.19,6.3,6.27.54,8.49-4.1,11.5-8.91,4.23-6.75,5.26-14.87,10.16-21.18.88-1.14-.7-2.74-1.59-1.6Z"/><path class="cls-3" d="M281.15,226.59c1.11,2-17,13.09-18.72,14.49-5.58,4.47-5.69,11.9-5.81,18.51,0,2-.85,6.49.73,8.17s5.65,1.3,7.5,1.16a17.07,17.07,0,0,0,8.79-3.45c3.66-2.5,7.95-7.18,12.65-7.38,1.44-.06,1.45-2.31,0-2.25-6,.25-10.35,5.7-15.16,8.66-4.3,2.64-12.25,4.13-12.27-3.1,0-4.07-.07-8.72,1.09-12.66,1.37-4.69,4.88-6.48,8.72-8.93,3.07-2,5.55-4.58,8.51-6.66,2.75-1.93,8.34-3.37,5.91-7.69a1.12,1.12,0,0,0-1.94,1.13Z"/><circle class="cls-4" cx="249.46" cy="198.15" r="103.8"/><line class="cls-4" x1="136.59" y1="196.68" x2="136.59" y2="396.88"/><line class="cls-4" x1="361.68" y1="194.51" x2="361.68" y2="394.71"/><path class="cls-3" d="M228,235.94a19.69,19.69,0,0,0,6.16,10.49,95,95,0,0,1,12.68,13.23c7.14,9.49,15.56,19.64,15.47,32.09,0,3.93-1.4,6.27-5.58,6.55-3.36.23-6.12-.2-8.94-2.25-4.89-3.56-5.16-8.65-8.08-13.35-2.4-3.86-7-5.8-10.7-8.19-2.37-1.55-4.73-3.13-7-4.81-1.51-1.13-3.59-2.44-4.49-4.19-1-1.91-.49-4.46-.48-6.49a1.13,1.13,0,0,0-2.25,0c0,5.82.47,8.39,5.32,12.06,6.26,4.74,16.06,8.2,19,15.83,1.87,4.87,4,9.09,8.64,11.87a12.32,12.32,0,0,0,6.3,1.9c2,.06,5.75.31,7.67-.68,3.75-1.94,2.88-9.12,2.5-12.31-.76-6.47-3-11-6.53-16.4a171.91,171.91,0,0,0-12.92-17.84c-5.18-6-12.7-9.89-14.6-18.11-.33-1.41-2.5-.81-2.17.6Z"/></g></svg>