<svg id="Layer_1" data-name="Layer 1" xmlns="http://www.w3.org/2000/svg" viewBox="0 0 196.8 119.9"><defs><style>.cls-1,.cls-2{fill:#fff;}.cls-1{stroke:#fff;}.cls-1,.cls-2,.cls-3{stroke-miterlimit:10;stroke-width:0.75px;}.cls-2,.cls-3{stroke:#1d1d1b;}.cls-3{fill:none;}</style></defs><title>projects</title><rect class="cls-1" width="196.8" height="119.52"/><polygon class="cls-2" points="84.95 106.51 19.39 106.51 19.39 17.24 65.7 17.24 84.95 32.9 84.95 106.51"/><polygon class="cls-2" points="84.95 106.51 19.39 106.51 19.39 17.24 65.7 17.24 66.51 31.88 84.95 32.9 84.95 106.51"/><line class="cls-3" x1="26.71" y1="45.63" x2="77.63" y2="45.63"/><line class="cls-3" x1="26.71" y1="56.63" x2="77.63" y2="56.63"/><line class="cls-3" x1="26.71" y1="67.63" x2="77.63" y2="67.63"/><line class="cls-3" x1="26.71" y1="78.63" x2="77.63" y2="78.63"/><line class="cls-3" x1="26.71" y1="90.83" x2="77.63" y2="90.83"/><polygon class="cls-2" points="172 106.51 106.44 106.51 106.44 17.24 152.75 17.24 172 32.9 172 106.51"/><polygon class="cls-2" points="172 106.51 106.44 106.51 106.44 17.24 152.75 17.24 153.56 31.88 172 32.9 172 106.51"/><line class="cls-3" x1="113.75" y1="45.63" x2="164.68" y2="45.63"/><line class="cls-3" x1="113.75" y1="56.63" x2="164.68" y2="56.63"/><line class="cls-3" x1="113.75" y1="67.63" x2="164.68" y2="67.63"/><line class="cls-3" x1="113.75" y1="78.63" x2="164.68" y2="78.63"/><line class="cls-3" x1="113.75" y1="90.83" x2="164.68" y2="90.83"/></svg>